<svg width="48" height="16" viewBox="0 0 48 16" fill="none" xmlns="http://www.w3.org/2000/svg">
<path d="M1.68375 7.9H9.26375V8.82H1.68375V7.9ZM1.80375 15H0.78375V0.999999H10.1438V1.92H1.80375V15ZM13.0809 15V4.56H14.0809V15H13.0809ZM13.5809 2.02C13.3543 2.02 13.1609 1.94 13.0009 1.78C12.8409 1.62 12.7609 1.43333 12.7609 1.22C12.7609 0.993333 12.8409 0.799999 13.0009 0.639999C13.1609 0.479999 13.3543 0.4 13.5809 0.4C13.8209 0.4 14.0143 0.479999 14.1609 0.639999C14.3209 0.786666 14.4009 0.973333 14.4009 1.2C14.4009 1.42667 14.3209 1.62 14.1609 1.78C14.0143 1.94 13.8209 2.02 13.5809 2.02ZM18.2958 15V0.159999H19.2958V15H18.2958ZM26.4139 15.08C25.4939 15.08 24.7872 14.8267 24.2939 14.32C23.8139 13.8133 23.5739 13.12 23.5739 12.24V2.28H24.5739V12.14C24.5739 12.8067 24.7406 13.32 25.0739 13.68C25.4072 14.04 25.8872 14.22 26.5139 14.22C27.1672 14.22 27.7072 14.0267 28.1339 13.64L28.5539 14.34C28.2872 14.5933 27.9606 14.78 27.5739 14.9C27.2006 15.02 26.8139 15.08 26.4139 15.08ZM21.6539 5.42V4.56H27.8939V5.42H21.6539ZM35.2116 15.08C34.1582 15.08 33.2249 14.8533 32.4116 14.4C31.6116 13.9467 30.9782 13.32 30.5116 12.52C30.0582 11.72 29.8316 10.8067 29.8316 9.78C29.8316 8.74 30.0449 7.82667 30.4716 7.04C30.9116 6.24 31.5116 5.61333 32.2716 5.16C33.0316 4.70667 33.8849 4.48 34.8316 4.48C35.7782 4.48 36.6249 4.7 37.3716 5.14C38.1316 5.58 38.7249 6.2 39.1516 7C39.5916 7.78667 39.8116 8.7 39.8116 9.74C39.8116 9.78 39.8049 9.82667 39.7916 9.88C39.7916 9.92 39.7916 9.96667 39.7916 10.02H30.5716V9.24H39.2516L38.8516 9.62C38.8649 8.80667 38.6916 8.08 38.3316 7.44C37.9849 6.78667 37.5116 6.28 36.9116 5.92C36.3116 5.54667 35.6182 5.36 34.8316 5.36C34.0582 5.36 33.3649 5.54667 32.7516 5.92C32.1516 6.28 31.6782 6.78667 31.3316 7.44C30.9849 8.08 30.8116 8.81333 30.8116 9.64V9.82C30.8116 10.6733 30.9982 11.4333 31.3716 12.1C31.7582 12.7533 32.2849 13.2667 32.9516 13.64C33.6182 14 34.3782 14.18 35.2316 14.18C35.8982 14.18 36.5182 14.06 37.0916 13.82C37.6782 13.58 38.1716 13.2133 38.5716 12.72L39.1516 13.38C38.6982 13.94 38.1249 14.3667 37.4316 14.66C36.7516 14.94 36.0116 15.08 35.2116 15.08ZM42.9052 15V4.56H43.8652V7.42L43.7652 7.1C44.0585 6.26 44.5518 5.61333 45.2452 5.16C45.9385 4.70667 46.8052 4.48 47.8452 4.48V5.46C47.8052 5.46 47.7652 5.46 47.7252 5.46C47.6852 5.44667 47.6452 5.44 47.6052 5.44C46.4452 5.44 45.5385 5.80667 44.8852 6.54C44.2318 7.26 43.9052 8.26667 43.9052 9.56V15H42.9052Z" fill="black"/>
</svg>
