<svg width="115" height="19" viewBox="0 0 115 19" fill="none" xmlns="http://www.w3.org/2000/svg">
<path d="M5.048 7.704H12.848V11.256H5.048V7.704ZM5.384 14.328H14.168V18H0.68V1.2H13.856V4.872H5.384V14.328ZM15.8083 12.912V9.408H22.8163V12.912H15.8083ZM25.6409 18V1.2H29.5529L36.5129 12.624H34.4489L41.2169 1.2H45.1289L45.1769 18H40.8089L40.7609 7.848H41.5049L36.4409 16.344H34.3289L29.1209 7.848H30.0329V18H25.6409ZM56.2674 18V15.576L55.9554 14.976V10.512C55.9554 9.792 55.7314 9.24 55.2834 8.856C54.8514 8.456 54.1554 8.256 53.1954 8.256C52.5714 8.256 51.9394 8.36 51.2994 8.568C50.6594 8.76 50.1154 9.032 49.6674 9.384L48.1314 6.288C48.8674 5.808 49.7474 5.44 50.7714 5.184C51.8114 4.912 52.8434 4.776 53.8674 4.776C55.9794 4.776 57.6114 5.264 58.7634 6.24C59.9314 7.2 60.5154 8.712 60.5154 10.776V18H56.2674ZM52.4274 18.216C51.3874 18.216 50.5074 18.04 49.7874 17.688C49.0674 17.336 48.5154 16.856 48.1314 16.248C47.7634 15.64 47.5794 14.96 47.5794 14.208C47.5794 13.408 47.7794 12.72 48.1794 12.144C48.5954 11.552 49.2274 11.104 50.0754 10.8C50.9234 10.48 52.0194 10.32 53.3634 10.32H56.4354V12.696H53.9874C53.2514 12.696 52.7314 12.816 52.4274 13.056C52.1394 13.296 51.9954 13.616 51.9954 14.016C51.9954 14.416 52.1474 14.736 52.4514 14.976C52.7554 15.216 53.1714 15.336 53.6994 15.336C54.1954 15.336 54.6434 15.216 55.0434 14.976C55.4594 14.72 55.7634 14.336 55.9554 13.824L56.5794 15.504C56.3394 16.4 55.8674 17.08 55.1634 17.544C54.4754 17.992 53.5634 18.216 52.4274 18.216ZM63.3937 18V4.992H67.7377V8.784L67.0897 7.704C67.4737 6.728 68.0977 6 68.9617 5.52C69.8257 5.024 70.8737 4.776 72.1057 4.776V8.88C71.8977 8.848 71.7137 8.832 71.5537 8.832C71.4097 8.816 71.2497 8.808 71.0737 8.808C70.1457 8.808 69.3937 9.064 68.8177 9.576C68.2417 10.072 67.9537 10.888 67.9537 12.024V18H63.3937ZM77.7794 15.6L77.8994 10.152L83.2034 4.992H88.6034L82.7234 11.064L80.3954 12.936L77.7794 15.6ZM73.9874 18V0.191999H78.5474V18H73.9874ZM83.5394 18L79.5554 13.008L82.3874 9.504L89.0594 18H83.5394ZM96.6941 18.216C95.1581 18.216 93.8141 17.928 92.6621 17.352C91.5261 16.76 90.6381 15.96 89.9981 14.952C89.3741 13.928 89.0621 12.768 89.0621 11.472C89.0621 10.176 89.3661 9.024 89.9741 8.016C90.5981 6.992 91.4541 6.2 92.5421 5.64C93.6301 5.064 94.8541 4.776 96.2141 4.776C97.4941 4.776 98.6621 5.04 99.7181 5.568C100.774 6.08 101.614 6.84 102.238 7.848C102.862 8.856 103.174 10.08 103.174 11.52C103.174 11.68 103.166 11.864 103.15 12.072C103.134 12.28 103.118 12.472 103.102 12.648H92.8061V10.248H100.678L98.9501 10.92C98.9661 10.328 98.8541 9.816 98.6141 9.384C98.3901 8.952 98.0701 8.616 97.6541 8.376C97.2541 8.136 96.7821 8.016 96.2381 8.016C95.6941 8.016 95.2141 8.136 94.7981 8.376C94.3981 8.616 94.0861 8.96 93.8621 9.408C93.6381 9.84 93.5261 10.352 93.5261 10.944V11.64C93.5261 12.28 93.6541 12.832 93.9101 13.296C94.1821 13.76 94.5661 14.12 95.0621 14.376C95.5581 14.616 96.1501 14.736 96.8381 14.736C97.4781 14.736 98.0221 14.648 98.4701 14.472C98.9341 14.28 99.3901 13.992 99.8381 13.608L102.238 16.104C101.614 16.792 100.846 17.32 99.9341 17.688C99.0221 18.04 97.9421 18.216 96.6941 18.216ZM111.085 18.216C109.421 18.216 108.125 17.808 107.197 16.992C106.269 16.16 105.805 14.912 105.805 13.248V2.088H110.365V13.2C110.365 13.664 110.493 14.032 110.749 14.304C111.005 14.56 111.333 14.688 111.733 14.688C112.277 14.688 112.741 14.552 113.125 14.28L114.253 17.472C113.869 17.728 113.397 17.912 112.837 18.024C112.277 18.152 111.693 18.216 111.085 18.216ZM103.909 8.88V5.472H113.341V8.88H103.909Z" fill="white"/>
</svg>
